<?xml version="1.0" encoding="utf-8"?>
<!-- Generator: Adobe Illustrator 28.0.0, SVG Export Plug-In . SVG Version: 6.00 Build 0)  -->
<svg version="1.1" id="Layer_1" xmlns="http://www.w3.org/2000/svg" xmlns:xlink="http://www.w3.org/1999/xlink" x="0px" y="0px"
	 viewBox="0 0 601.6 170.1" style="enable-background:new 0 0 601.6 170.1;" xml:space="preserve">
<style type="text/css">
	.st0{fill:url(#SVGID_1_);}
	.st1{fill:url(#SVGID_00000111151531300590770290000011628931308452190094_);}
	.st2{fill:url(#SVGID_00000006691863705863952040000017677993850518400425_);}
	.st3{fill:url(#SVGID_00000173839367491172517150000016180600758222061981_);}
	.st4{fill:url(#SVGID_00000088812379784799180080000011946835062744679823_);}
	.st5{fill:url(#SVGID_00000038376695909717599160000010566214598451859624_);}
	.st6{fill:#D9D9D9;}
</style>
<linearGradient id="SVGID_1_" gradientUnits="userSpaceOnUse" x1="161.0099" y1="966.1301" x2="205.41" y2="921.7299" gradientTransform="matrix(1 0 0 1 -98.11 -858.93)">
	<stop  offset="0" style="stop-color:#F08431"/>
	<stop  offset="1" style="stop-color:#D6DA2C"/>
</linearGradient>
<path class="st0" d="M160.9,160.9L160.9,160.9c-12.2,12.2-31.9,12.3-44.2,0.1c-0.1-0.1-0.1-0.1-0.2-0.2L9.3,53.6
	C-2.9,41.5-3.1,21.7,9,9.4c0.1-0.1,0.1-0.1,0.2-0.2l0,0C21.5-3,41.4-3,53.7,9.2l107.2,107.2C173.2,128.7,173.2,148.6,160.9,160.9z"
	/>
<linearGradient id="SVGID_00000163764713149088170690000009890482240683165078_" gradientUnits="userSpaceOnUse" x1="134.1357" y1="1046.578" x2="232.1656" y2="948.5383" gradientTransform="matrix(1 0 0 1 -98.11 -858.93)">
	<stop  offset="0" style="stop-color:#6CBB85"/>
	<stop  offset="1" style="stop-color:#6EC6D8"/>
</linearGradient>
<path style="fill:url(#SVGID_00000163764713149088170690000009890482240683165078_);" d="M138.6,107.2H31.5
	C14.1,107.2,0,121.3,0,138.6l0,0l0,0C0,156,14.1,170,31.4,170.1l0,0h107.2c17.4,0,31.4-14.1,31.4-31.5l0,0l0,0
	C170.1,121.3,156,107.2,138.6,107.2L138.6,107.2z"/>
<linearGradient id="SVGID_00000131353364341044385880000004872991062000422842_" gradientUnits="userSpaceOnUse" x1="259.0585" y1="1019.7815" x2="183.2084" y2="943.9316" gradientTransform="matrix(1 0 0 1 -98.11 -858.93)">
	<stop  offset="0" style="stop-color:#DCEEE8"/>
	<stop  offset="1" style="stop-color:#F2EE9B"/>
</linearGradient>
<path style="fill:url(#SVGID_00000131353364341044385880000004872991062000422842_);" d="M160.9,116.4l-0.4-0.4
	c-5.9-5.7-13.7-8.8-21.8-8.8H62.9l53.6,53.6c5.8,6,13.8,9.3,22.1,9.3l0,0c0.9,0,1.8,0,2.8-0.1h0.4c0.9-0.1,1.7-0.2,2.6-0.4
	c0.2,0,0.3,0,0.5-0.1c0.8-0.2,1.6-0.4,2.4-0.6l0.6-0.2c0.8-0.2,1.5-0.5,2.3-0.8l0.6-0.2c0.7-0.3,1.4-0.6,2.1-1
	c0.2-0.1,0.4-0.2,0.7-0.3c0.7-0.4,1.4-0.8,2-1.2l0.6-0.4c0.7-0.5,1.4-1,2-1.5l0.4-0.3c0.7-0.6,1.4-1.2,2.1-1.9l0.2-0.2
	c0.7-0.7,1.4-1.4,2-2.2l0.2-0.3c0.6-0.7,1.1-1.4,1.6-2.2c0.1-0.1,0.2-0.3,0.2-0.4c0.5-0.8,0.9-1.5,1.4-2.3c0.1-0.1,0.1-0.2,0.2-0.4
	c0.4-0.8,0.8-1.6,1.1-2.5l0.1-0.2c0.4-0.9,0.7-1.8,0.9-2.7v-0.1C172,136.5,169,124.6,160.9,116.4z"/>
<linearGradient id="SVGID_00000066476520431276523390000008357576987232568460_" gradientUnits="userSpaceOnUse" x1="31.4" y1="839.99" x2="31.4" y2="669.89" gradientTransform="matrix(1 0 0 1 0 -669.89)">
	<stop  offset="0" style="stop-color:#642F87"/>
	<stop  offset="1" style="stop-color:#E62579"/>
</linearGradient>
<path style="fill:url(#SVGID_00000066476520431276523390000008357576987232568460_);" d="M31.4,0L31.4,0c17.4,0,31.4,14.1,31.4,31.5
	v107.2c0,17.4-14.1,31.4-31.4,31.4l0,0C14.1,170.1,0,156,0,138.6V31.5C0,14.1,14.1,0,31.4,0z"/>
<linearGradient id="SVGID_00000047769380152876800740000016259173930113230501_" gradientUnits="userSpaceOnUse" x1="123.063" y1="928.1745" x2="167.4621" y2="883.7853" gradientTransform="matrix(1 0 0 1 -98.11 -858.93)">
	<stop  offset="0" style="stop-color:#E7392F"/>
	<stop  offset="1" style="stop-color:#ED6A5E"/>
</linearGradient>
<path style="fill:url(#SVGID_00000047769380152876800740000016259173930113230501_);" d="M9.2,9.2L9.2,9.2C7,11.5,5.1,14,3.6,16.8
	l0,0c-0.5,0.9-0.9,1.8-1.3,2.7v0.1c-0.4,0.9-0.7,1.9-1,2.8c0,0,0,0,0,0.1c-0.3,1-0.5,1.9-0.7,2.9l0,0c-2,10.2,1.3,20.8,8.7,28.1
	l53.5,53.7V31.5c0-8-3-15.7-8.4-21.5l-0.8-0.8C41.4-3.1,21.5-3,9.2,9.2z"/>
<linearGradient id="SVGID_00000160906219489659007910000011943485307670940346_" gradientUnits="userSpaceOnUse" x1="107.3392" y1="1019.7717" x2="161.0504" y2="966.0704" gradientTransform="matrix(1 0 0 1 -98.11 -858.93)">
	<stop  offset="0" style="stop-color:#4D2A86"/>
	<stop  offset="1" style="stop-color:#934D98"/>
</linearGradient>
<path style="fill:url(#SVGID_00000160906219489659007910000011943485307670940346_);" d="M62.9,138.6v-31.5H31.4
	C14.1,107.2,0,121.3,0,138.6C0,156,14.1,170,31.4,170l0,0C48.8,170.1,62.9,156,62.9,138.6z"/>
<path class="st6" d="M271.7,129.7c-17.5,0-29.9-12.5-29.9-29.7c0-16.9,12.7-29.5,30-29.5c16.8,0,30.6,11.9,29.8,33.2h-44.5
	c0.7,6.7,5.7,12.5,15.4,12.5c5.5,0,10.3-2.4,12.1-6.2h16.3C297.5,121.4,286.2,129.7,271.7,129.7z M257.7,93.6h26.8
	c-1.9-7.6-7.8-10.4-13.1-10.4C264.2,83.1,259.2,87.3,257.7,93.6L257.7,93.6z"/>
<path class="st6" d="M312.2,62.5c-5.5-0.1-9.8-4.5-9.7-10c0.1-5.5,4.5-9.8,10-9.7c5.4,0.1,9.7,4.5,9.7,9.9S317.7,62.5,312.2,62.5z
	 M304.5,71.8h15.6v56.7h-15.6V71.8z"/>
<path class="st6" d="M340.7,132c1.9,5.8,6.4,8.4,12.9,8.4c6.9,0,12.9-4.4,12.9-13.4v-6.7c-3,4.2-9.2,7.5-16.5,7.5
	c-14.8,0-26.9-12.7-26.9-28.6s12.1-28.7,26.9-28.7c7.3,0,13.6,3.3,16.5,7.6v-6.4h15.6V125c0,20.5-14,28.4-28.9,28.4
	c-16.1,0-26.7-9.2-27.9-21.3L340.7,132z M353.2,84.7c-8,0-14.5,6.5-14.5,14.5s6.5,14.5,14.5,14.5s14.5-6.5,14.5-14.5l0,0
	c0.2-7.8-6-14.3-13.8-14.5C353.7,84.7,353.4,84.7,353.2,84.7L353.2,84.7z"/>
<path class="st6" d="M388.6,43.4h15.6v34.8c3-4.5,8.9-7.7,16.3-7.7c13.8,0,22,10,22,24.7v33.2h-15.6V97.9c0-8.2-3.5-13.1-10-13.1
	c-7.2,0-12.7,5.2-12.7,16.1v27.7h-15.7V43.4H388.6z"/>
<path class="st6" d="M476,129.2c-12.1,0-21.8-6.7-21.8-20.5V85.4h-11.5V71.8h11.5V56h15.7v15.8H486v13.6h-16.1v20.2
	c0,6.9,3,9.6,9.7,9.6c2.2,0.1,4.3-0.3,6.4-1V128C482.7,128.9,479.4,129.3,476,129.2z"/>
<path class="st6" d="M514.8,129.7c-16.3-0.2-29.4-13.7-29.2-30c0.2-16.3,13.7-29.4,30-29.2c16.2,0.2,29.2,13.4,29.2,29.6
	c-0.1,16.4-13.4,29.6-29.8,29.6C515,129.7,514.9,129.7,514.8,129.7z M514.8,115.2c8.2,0,14.2-6.4,14.2-15.1S523.1,85,514.8,85
	s-14.3,6.4-14.3,15.1S506.6,115.2,514.8,115.2L514.8,115.2z"/>
<path class="st6" d="M547.6,71.8h15.6v6.5c3-4.5,8.9-7.7,16.3-7.7c13.8,0,22,10,22,24.7v33.2h-15.6V97.9c0-8.2-3.5-13.1-10-13.1
	c-7.2,0-12.7,5.2-12.7,16.1v27.7h-15.7V71.8H547.6z"/>
<path class="st6" d="M241.2,128h-6.4c-8.8,0-15.9-7.1-15.9-15.9V43.4h14.5v65.9c0,2.2,1.8,4.1,4.1,4.1h3.7L241.2,128L241.2,128z"/>
</svg>
